<svg version="1.1" xmlns="http://www.w3.org/2000/svg" width="512px" height="512px" viewBox="0 0 512 512" fill="currentColor" transform="rotate(0) scale(1, 1)">
<g>
<path d="M0 0 C3.23214134 1.61999267 6.15029497 3.64022388 9.125 5.6875 C11.19361607 7.07350541 13.26266594 8.45886349 15.33203125 9.84375 C16.53469462 10.6549084 17.73732992 11.46610843 18.93994141 12.27734375 C23.5456424 15.37523194 28.18435123 18.42236629 32.82421875 21.46875 C52.63173398 34.47838353 72.37970476 47.57406442 92.0796814 60.74591064 C101.36625941 66.95253567 110.65582903 73.13628744 120.125 79.0625 C130.06253361 85.28528148 139.7881296 91.82314924 149.51531982 98.36813354 C151.37324675 99.61809606 153.23216795 100.86658202 155.09210205 102.11355591 C157.7066488 103.86770918 160.31685301 105.6281296 162.92578125 107.390625 C163.72565964 107.92640671 164.52553802 108.46218842 165.34965515 109.01420593 C166.08029678 109.50999649 166.81093842 110.00578705 167.5637207 110.51660156 C168.20573929 110.94958557 168.84775787 111.38256958 169.50923157 111.82867432 C171 113 171 113 172 115 C172.10489778 116.52060753 172.14868731 118.04565366 172.16113281 119.56982422 C172.17074036 120.51775848 172.1803479 121.46569275 172.19024658 122.44235229 C172.1966214 123.98295822 172.1966214 123.98295822 172.203125 125.5546875 C172.20882507 126.60778107 172.21452515 127.66087463 172.22039795 128.74588013 C172.2298557 130.97689812 172.236385 133.20793013 172.24023438 135.43896484 C172.24994057 138.85408876 172.28095737 142.26861116 172.3125 145.68359375 C172.31902983 147.84895475 172.32428038 150.01432007 172.328125 152.1796875 C172.3404718 153.20270966 172.3528186 154.22573181 172.36553955 155.27975464 C172.36253845 156.23399323 172.35953735 157.18823181 172.35644531 158.17138672 C172.36009094 159.00918671 172.36373657 159.84698669 172.36749268 160.71017456 C171.91319331 163.5408874 170.92247636 164.90334442 169 167 C166.8125 168 166.8125 168 164 168 C159.04987234 165.95167131 154.7337112 163.22724723 150.2265625 160.34375 C149.24510254 159.71662109 148.26364258 159.08949219 147.25244141 158.44335938 C146.50913574 157.96705078 145.76583008 157.49074219 145 157 C144.85001917 172.75159087 144.76906984 188.50194433 144.76940536 204.2541647 C144.76796662 211.56902636 144.74427867 218.88253076 144.66748047 226.19702148 C144.60056761 232.57545536 144.57614611 238.95242586 144.60190511 245.33118302 C144.61407472 248.70678375 144.60554338 252.07936552 144.5460434 255.4545269 C143.47416501 269.83665691 143.47416501 269.83665691 148.59777832 282.53689575 C151.64635738 284.82222258 154.57716413 286.35907364 158 288 C171.88659461 300.56083323 180.23793479 319.33024463 181.203125 337.91015625 C181.44727394 350.89359231 179.56720092 362.34004034 174.18359375 374.28125 C173.79300781 375.1784375 173.40242188 376.075625 173 377 C172.58105469 377.94230469 172.16210938 378.88460938 171.73046875 379.85546875 C170.78758831 383.91439256 171.71918708 386.93143504 172.875 390.8125 C177.74767479 409.37844317 174.91396907 426.97487951 165.91015625 443.81640625 C156.20147132 459.9975478 141.8222489 470.87400283 123.9375 476.5 C104.49009161 481.07105926 84.10731348 478.45179967 67 468 C63.48381877 465.51947559 60.21558986 462.85705719 57 460 C56.36320312 459.44570313 55.72640625 458.89140625 55.0703125 458.3203125 C49.97383276 453.58624909 46.57304884 447.92051365 43 442 C42.34 441.01 41.68 440.02 41 439 C37.46056164 438.67891171 34.02163472 438.61191285 30.47265625 438.6484375 C24.57510685 438.52492861 22.15216772 437.20696172 18 433 C16.83751416 431.76336383 15.70395129 430.49765514 14.625 429.1875 C14.12226563 428.58292969 13.61953125 427.97835938 13.1015625 427.35546875 C12.73804688 426.90816406 12.37453125 426.46085937 12 426 C11.278125 426.721875 10.55625 427.44375 9.8125 428.1875 C1 437 1 437 -1.6875 437.375 C-7.33262629 436.7359291 -10.38654664 432.82451089 -13.875 428.6875 C-14.57625 427.800625 -15.2775 426.91375 -16 426 C-16.66 426.680625 -17.32 427.36125 -18 428.0625 C-18.46817139 428.51471924 -18.93634277 428.96693848 -19.41870117 429.43286133 C-21.0377743 430.99643255 -21.0377743 430.99643255 -22.54418945 432.79174805 C-26.65215427 437.10639573 -29.75741567 438.50033226 -35.73046875 438.859375 C-38.21641319 438.859375 -40.70259812 438.82198888 -43.1875 438.75 C-44.44498047 438.7603125 -45.70246094 438.770625 -46.99804688 438.78125 C-55.97096571 438.66664114 -55.97096571 438.66664114 -59.97265625 436.07421875 C-60.64167969 435.05972656 -61.31070313 434.04523438 -62 433 C-62.48428467 432.27796387 -62.96856934 431.55592773 -63.4675293 430.81201172 C-65.13146128 428.26604698 -66.69618017 425.67695421 -68.25 423.0625 C-68.79140625 422.18142578 -69.3328125 421.30035156 -69.890625 420.39257812 C-75.02082567 411.83155575 -75.02082567 411.83155575 -75 407 C-74.06640625 404.24609375 -74.06640625 404.24609375 -72.5625 401.4375 C-72.01078125 400.40625 -71.4590625 399.375 -70.890625 398.3125 C-61.52352138 381.90071515 -61.52352138 381.90071515 -58 379 C-56.10708332 378.6515522 -56.10708332 378.6515522 -53.93464661 378.68875122 C-53.10908264 378.69500015 -52.28351868 378.70124908 -51.43293762 378.70768738 C-50.5305687 378.72954605 -49.62819977 378.75140472 -48.69848633 378.77392578 C-47.7452951 378.78461594 -46.79210388 378.79530609 -45.81002808 378.80632019 C-43.73758897 378.83003607 -41.66521275 378.85983992 -39.59293556 378.89496231 C-36.30963324 378.94565834 -33.02722569 378.9695387 -29.74357605 378.98434448 C-20.40694017 379.02656776 -11.07149689 379.07969913 -1.73608398 379.24316406 C3.97381195 379.34117688 9.68108585 379.37563975 15.39177895 379.3687706 C17.56523731 379.37808614 19.73872973 379.41093211 21.91145897 379.46799088 C32.80083495 380.26305889 32.80083495 380.26305889 42.66974258 376.72597504 C45.72972972 373.240194 47.28743755 369.28740778 49 365 C59.73012395 349.61547693 77.6199332 341.87601336 95.4375 338.3125 C114.74848128 336.61855427 133.4949894 341.0334773 149 353 C153.20326939 356.79802983 157.11989894 360.87612295 161 365 C161.48509793 363.62708132 161.96275513 362.25153297 162.4375 360.875 C162.70433594 360.10929687 162.97117187 359.34359375 163.24609375 358.5546875 C167.96434048 342.56643173 164.54484648 326.80189901 157.05078125 312.359375 C153.97217523 307.31632513 150.19925999 303.13260507 146 299 C145.98018066 299.58491211 145.96036133 300.16982422 145.93994141 300.77246094 C145.84446519 303.43208025 145.73487858 306.09093838 145.625 308.75 C145.57859375 310.13058594 145.57859375 310.13058594 145.53125 311.5390625 C145.49257813 312.42851562 145.45390625 313.31796875 145.4140625 314.234375 C145.3826416 315.05131836 145.3512207 315.86826172 145.31884766 316.70996094 C144.95833033 319.29928137 144.50931673 320.8565984 143 323 C138.37536206 325.54530599 133.79656976 325.27445337 128.66703796 325.24050903 C127.25180421 325.24307231 127.25180421 325.24307231 125.80797988 325.24568737 C122.64494005 325.24898293 119.48211211 325.23797736 116.3190918 325.22705078 C114.0523733 325.22648668 111.78565444 325.2268032 109.51893616 325.22793579 C103.36237186 325.22851035 97.20588527 325.21673921 91.04933906 325.20278788 C84.61645891 325.19029783 78.18357705 325.18911138 71.75068665 325.18673706 C60.95250949 325.1812242 50.15436424 325.16872596 39.35620117 325.15087891 C28.23478335 325.13251671 17.11337328 325.11836187 5.99194336 325.10986328 C5.30624799 325.10933783 4.62055263 325.10881239 3.91407862 325.10827102 C0.47409545 325.10566091 -2.96588777 325.10313351 -6.40587103 325.10064721 C-34.93726664 325.0799188 -63.4686322 325.044548 -92 325 C-92.20160736 325.62072891 -92.40321472 326.24145782 -92.6109314 326.8809967 C-92.87773712 327.69378586 -93.14454285 328.50657501 -93.41943359 329.34399414 C-93.68291595 330.15034805 -93.94639832 330.95670197 -94.21786499 331.78749084 C-95.08787884 334.2485923 -96.1455557 336.28754732 -97.625 338.4375 C-98.3984375 339.56285156 -98.3984375 339.56285156 -99.1875 340.7109375 C-101.16420821 343.20738364 -103.35577517 345.33059794 -105.625 347.5625 C-109.95395579 352.22279018 -111.25106954 356.63194549 -112.47973633 362.67822266 C-115.38251689 376.35703509 -123.11888686 388.29073231 -133 398 C-131.58460938 398.12955078 -131.58460938 398.12955078 -130.140625 398.26171875 C-117.70716433 399.62240872 -107.75006988 402.87494176 -98 411 C-97.154375 411.5775 -96.30875 412.155 -95.4375 412.75 C-84.34066119 422.99323583 -79.69224447 437.52450236 -78.80470276 452.23748779 C-78.72213013 455.64803425 -78.69655937 459.05330487 -78.69921875 462.46484375 C-78.69493362 463.70118057 -78.6906485 464.9375174 -78.68623352 466.21131897 C-78.68053043 468.80208731 -78.67995998 471.39287164 -78.68432617 473.98364258 C-78.6875108 477.95095688 -78.66389091 481.91754189 -78.63867188 485.88476562 C-78.63640097 488.4114574 -78.63569441 490.93815117 -78.63671875 493.46484375 C-78.627509 494.64819809 -78.61829926 495.83155243 -78.60881042 497.05076599 C-78.61503922 498.1528389 -78.62126801 499.2549118 -78.62768555 500.39038086 C-78.62705612 501.35568222 -78.6264267 502.32098358 -78.6257782 503.3155365 C-79.0712546 506.5111417 -80.11783396 508.4008354 -82 511 C-84.89871978 512.44935989 -87.42103252 512.13605343 -90.66072083 512.14717102 C-91.35310575 512.15084771 -92.04549067 512.1545244 -92.75885695 512.1583125 C-95.09030332 512.16936868 -97.42170514 512.17319643 -99.75317383 512.17700195 C-101.42021324 512.18326511 -103.08725125 512.18991178 -104.75428772 512.19691467 C-109.29154552 512.21433734 -113.82879278 512.22487974 -118.36607575 512.2331202 C-121.19938672 512.23826736 -124.03269439 512.2443432 -126.86600304 512.25063133 C-135.72667129 512.2696864 -144.58733118 512.28391722 -153.44801599 512.2922433 C-163.68390521 512.30201983 -173.91957843 512.32834884 -184.15539151 512.36874419 C-192.06202818 512.39887923 -199.96860283 512.41370966 -207.87529582 512.41702431 C-212.60001906 512.41937767 -217.3245116 512.42837508 -222.04917336 512.45348549 C-226.49382932 512.47672581 -230.93810204 512.48101583 -235.38280296 512.47072411 C-237.01423795 512.47022766 -238.64569155 512.47658018 -240.27706909 512.49028015 C-242.50461675 512.50794015 -244.73078024 512.50092354 -246.95832825 512.48774719 C-248.2047601 512.49013555 -249.45119196 512.4925239 -250.73539448 512.49498463 C-254.61373745 511.90694416 -256.27901074 510.78276864 -259 508 C-259.62145996 505.17004395 -259.62145996 505.17004395 -259.61523438 501.86132812 C-259.62453979 500.61903442 -259.63384521 499.37674072 -259.64343262 498.09680176 C-259.62783196 496.74160644 -259.61124561 495.38642217 -259.59375 494.03125 C-259.59203692 492.63081973 -259.59210659 491.23038626 -259.59387207 489.82995605 C-259.59221836 486.89088331 -259.57353079 483.95257276 -259.54199219 481.01367188 C-259.50260652 477.27950661 -259.49791242 473.54635252 -259.50545502 469.81201935 C-259.50855526 466.91539547 -259.49629242 464.01899112 -259.47932434 461.12242126 C-259.47237423 459.74797448 -259.46915991 458.37350279 -259.47001648 456.9990387 C-259.45357941 439.62105231 -255.46265444 425.98399601 -243.34375 413.21875 C-233.82479675 404.20747425 -221.86058585 399.69617963 -209 398 C-209.4846875 397.51273437 -209.969375 397.02546875 -210.46875 396.5234375 C-221.39589133 384.96588417 -227.11253984 371.66332163 -230.89453125 356.38671875 C-232.06059542 352.8143596 -233.47403103 350.66526151 -235.8125 347.75 C-247.65327955 331.96943123 -251.3743358 312.21295985 -248.70263672 292.84423828 C-245.91517025 277.26368882 -237.00520373 263.67596996 -224.3125 254.3125 C-201.98202812 239.70120358 -177.18578191 235.63570301 -151 240 C-151 212.61 -151 185.22 -151 157 C-156.28 160.3 -161.56 163.6 -167 167 C-171.29610605 168.07402651 -172.23960111 167.97915731 -176 166 C-178.11818857 162.82271714 -178.25968853 161.9804262 -178.30639648 158.33251953 C-178.32238388 157.38788849 -178.33837128 156.44325745 -178.35484314 155.47000122 C-178.36020584 154.45122894 -178.36556854 153.43245667 -178.37109375 152.3828125 C-178.38012222 151.33350555 -178.3891507 150.28419861 -178.39845276 149.20309448 C-178.41296641 146.98226784 -178.42184475 144.76139834 -178.42553711 142.54052734 C-178.43743074 139.14477376 -178.48660504 135.75083856 -178.53710938 132.35546875 C-178.54657378 130.19792554 -178.55380873 128.04037116 -178.55859375 125.8828125 C-178.57812607 124.86808868 -178.59765839 123.85336487 -178.61778259 122.80789185 C-178.57304695 115.8084506 -178.57304695 115.8084506 -176.00488281 112.18530273 C-172.18163633 109.40484456 -168.3328148 106.72017021 -164.36328125 104.15234375 C-163.50757034 103.59161163 -162.65185944 103.03087952 -161.7702179 102.45315552 C-158.95440942 100.60929763 -156.1334177 98.77352961 -153.3125 96.9375 C-149.31468288 94.32294173 -145.31956671 91.70426686 -141.32421875 89.0859375 C-140.3034021 88.41778519 -139.28258545 87.74963287 -138.23083496 87.06123352 C-128.55042855 80.72007947 -118.92648393 74.29597224 -109.30957031 67.85910034 C-97.42679923 59.90676976 -85.54593196 51.97384645 -73.42871094 44.38134766 C-64.84664873 38.97179338 -56.42554145 33.32200485 -47.99151611 27.68579102 C-45.4033273 25.9564276 -42.8139043 24.22892776 -40.22412109 22.50195312 C-33.22145923 17.83083205 -26.22232349 13.1556777 -19.25390625 8.43359375 C-17.48205661 7.24696901 -15.70995534 6.06071983 -13.9375 4.875 C-13.18452637 4.35542725 -12.43155273 3.83585449 -11.65576172 3.30053711 C-7.67321431 0.657899 -4.90264867 -1.05279241 0 0 Z M-11.3125 21.63671875 C-12.06450684 22.12879318 -12.81651367 22.62086761 -13.59130859 23.12785339 C-16.06381401 24.74746635 -18.53194036 26.37362206 -21 28 C-22.66254121 29.09099167 -24.32530292 30.18164739 -25.98828125 31.27197266 C-31.33069515 34.77764466 -36.66578714 38.29436639 -42 41.8125 C-42.95377533 42.44117981 -43.90755066 43.06985962 -44.89022827 43.71759033 C-58.24419362 52.52055497 -71.57122866 61.36263987 -84.86941528 70.24960327 C-91.99651928 75.01188189 -99.12674189 79.76615778 -106.32275391 84.42407227 C-108.05614163 85.55166445 -109.78252936 86.69009628 -111.50146484 87.83959961 C-117.18958397 91.62342659 -122.95790252 95.1655275 -128.86131287 98.60211182 C-132.77432982 100.90313023 -136.64024879 103.27742372 -140.50320435 105.66131592 C-142.43905803 106.83312439 -144.39384804 107.97427585 -146.36715698 109.08184814 C-155.76848677 114.27152478 -155.76848677 114.27152478 -163 122 C-165.17784765 129.85486151 -164.25212561 138.04603286 -163 146 C-153.60988388 140.07473744 -144.33291934 133.98515685 -135.0625 127.875 C-133.3935895 126.77574467 -131.72464329 125.67654356 -130.05566406 124.57739258 C-126.5206975 122.2491508 -122.98609167 119.92036252 -119.45166016 117.59130859 C-114.93812589 114.61743269 -110.42289564 111.64614381 -105.90705872 108.67576599 C-87.34413824 96.46495617 -68.80579363 84.22003459 -50.33374023 71.87210083 C-43.61374246 67.38273954 -36.88561847 62.90558939 -30.15466309 58.43267822 C-28.1491926 57.09920112 -26.14528501 55.76340609 -24.14160156 54.42724609 C-21.02273155 52.35016078 -17.88876894 50.29691681 -14.75 48.25 C-13.91162598 47.68933838 -13.07325195 47.12867676 -12.20947266 46.55102539 C-9.12201127 44.56312203 -6.62059683 43.14008222 -3.0234375 42.328125 C1.66779536 43.37062119 5.1615701 45.84968326 9.125 48.5 C10.54304932 49.42510376 10.54304932 49.42510376 11.98974609 50.36889648 C14.72849603 52.16306419 17.45721718 53.970799 20.18115234 55.78729248 C22.06601703 57.04401652 23.95274284 58.29790623 25.83984375 59.55126953 C31.63186508 63.39984196 37.41950432 67.25491361 43.19946289 71.12158203 C55.61760342 79.42802947 68.0823674 87.6620437 80.5625 95.875 C98.64052438 107.77488503 116.67239239 119.73989328 134.65263367 131.78712463 C137.19522961 133.49008087 139.73898852 135.19129476 142.28292847 136.89224243 C144.08638211 138.099156 145.88806341 139.30868286 147.68969727 140.51831055 C148.76405029 141.23672119 149.83840332 141.95513184 150.9453125 142.6953125 C151.89937988 143.33484863 152.85344727 143.97438477 153.83642578 144.63330078 C155.71439372 146.0890096 155.71439372 146.0890096 157 146 C159.38803969 132.30836639 159.38803969 132.30836639 155.35058594 119.57385254 C149.87674866 114.1311595 143.15181985 110.43745723 136.5 106.625 C134.55890978 105.42978416 132.62264652 104.22669196 130.69140625 103.015625 C126.0225599 100.11111514 121.3056886 97.29973162 116.56433105 94.51559448 C105.43929182 87.94037166 94.64642626 80.84854355 83.92138672 73.64541626 C80.05066053 71.04652653 76.17368811 68.456985 72.296875 65.8671875 C71.476427 65.31897842 70.655979 64.77076935 69.81066895 64.20594788 C59.56739538 57.3673526 49.28439506 50.58902656 39 43.8125 C38.09536011 43.21601654 37.19072021 42.61953308 36.25866699 42.00497437 C31.05274929 38.57273489 25.84296454 35.14648357 20.62890625 31.72662354 C18.80990586 30.5319332 16.99228662 29.33513828 15.17578125 28.13665771 C12.39073723 26.29917696 9.60199053 24.46743989 6.8125 22.63671875 C5.9563208 22.06991898 5.1001416 21.5031192 4.21801758 20.91914368 C3.43064209 20.40401718 2.6432666 19.88889069 1.83203125 19.3581543 C1.13827393 18.90143845 0.4445166 18.4447226 -0.27026367 17.97416687 C-4.50083224 15.59156111 -7.7826343 19.30320104 -11.3125 21.63671875 Z M-11.375 63.5 C-12.19750244 64.02279541 -13.02000488 64.54559082 -13.86743164 65.08422852 C-24.02534345 71.58929075 -34.03377344 78.32254 -44.05932617 85.02880859 C-58.93355164 94.97594628 -73.85184579 104.85780234 -88.83520508 114.63996887 C-90.57481717 115.79280721 -92.29931848 116.96873882 -94.00878906 118.16581726 C-98.96884003 121.5899295 -103.8843718 124.47965863 -109.36320114 126.96327972 C-126.08585265 134.50072427 -126.08585265 134.50072427 -136.98007584 148.4908371 C-140.83849213 162.93565774 -139.22201417 178.66578441 -138.26593018 193.40325928 C-137.92475367 199.22577969 -137.77691238 205.05312492 -137.61132812 210.8828125 C-137.26012603 222.26778078 -136.69923653 233.6314605 -136 245 C-134.56781128 245.69923584 -134.56781128 245.69923584 -133.10668945 246.41259766 C-131.83794977 247.03787574 -130.56931948 247.66337581 -129.30078125 248.2890625 C-128.67337036 248.59465088 -128.04595947 248.90023926 -127.39953613 249.21508789 C-121.99838905 251.88829374 -117.47703762 254.9942295 -113 259 C-111.87851563 259.98226562 -111.87851563 259.98226562 -110.734375 260.984375 C-96.20030489 274.52973286 -91.73915555 290.82591114 -89 310 C-78.11 310 -67.22 310 -56 310 C-55.98018066 306.2040332 -55.96036133 302.40806641 -55.93994141 298.49707031 C-55.8731122 285.97204183 -55.79557181 273.44709902 -55.71247292 260.92216873 C-55.66234006 253.3263882 -55.61589724 245.73061851 -55.578125 238.13476562 C-55.54519537 231.51462039 -55.50535881 224.89455902 -55.45720994 218.27450633 C-55.43195455 214.76887672 -55.41017048 211.26330267 -55.39665604 207.75760651 C-55.38144413 203.84513925 -55.35081276 199.93287587 -55.31884766 196.02050781 C-55.31668747 194.85669586 -55.31452728 193.69288391 -55.31230164 192.49380493 C-55.30113815 191.42812286 -55.28997467 190.3624408 -55.2784729 189.26446533 C-55.27017676 187.8762451 -55.27017676 187.8762451 -55.26171303 186.45998001 C-54.98038217 183.81560154 -54.48582072 182.20121104 -53 180 C-49.02563661 178.6752122 -45.22123736 178.86089278 -41.078125 178.87060547 C-40.16567017 178.86885315 -39.25321533 178.86710083 -38.31311035 178.86529541 C-35.29205431 178.8608883 -32.27105665 178.8638109 -29.25 178.8671875 C-27.15397124 178.86651413 -25.05794256 178.86554383 -22.96191406 178.86428833 C-18.56704974 178.8628129 -14.17220572 178.86496096 -9.77734375 178.86962891 C-4.13794335 178.87532609 1.50140945 178.87204626 7.14080811 178.86605644 C11.46956746 178.86244666 15.7983155 178.86359134 20.1270752 178.86618423 C22.20674648 178.86685235 24.28641878 178.86602911 26.36608887 178.86370468 C29.2701287 178.86117136 32.17409096 178.86502843 35.078125 178.87060547 C35.94159546 178.86858124 36.80506592 178.86655701 37.69470215 178.86447144 C41.0475346 178.87642815 43.79692375 178.93230792 47 180 C49.06355627 183.05711367 49.25676984 185.63281966 49.2784729 189.26446533 C49.28963638 190.3301474 49.30079987 191.39582947 49.31230164 192.49380493 C49.31446182 193.65761688 49.31662201 194.82142883 49.31884766 196.02050781 C49.33391609 197.86480881 49.33391609 197.86480881 49.34928894 199.74636841 C49.37487891 203.11382956 49.39173519 206.48112226 49.40471697 209.8486414 C49.42035194 213.3694189 49.44714098 216.89011108 49.4727478 220.41082764 C49.51952914 227.07594737 49.55627634 233.74108317 49.58942068 240.40628314 C49.63139679 248.73966422 49.68676284 257.07294937 49.7421875 265.40625 C49.84099212 280.27078073 49.91953599 295.13533355 50 310 C76.4 310 102.8 310 130 310 C130.78750245 281.2920147 130.78750245 281.2920147 131.31835938 252.58203125 C131.47819822 240.8601757 131.66536691 229.14358352 132.03686523 217.42626953 C132.3074048 208.88913765 132.48047927 200.35629671 132.54038936 191.81499755 C132.57539031 187.2963446 132.65646706 182.78995478 132.85471153 178.27527237 C134.38093552 159.43064068 134.38093552 159.43064068 127.39992523 142.76898193 C121.29875057 136.98862773 113.92683982 133.23126609 106.38438225 129.67235184 C101.24008584 127.13035956 96.61070145 123.92619664 91.8984375 120.671875 C90.15368155 119.51813326 88.40660309 118.36788871 86.65625 117.22265625 C71.40594012 107.19540653 56.17490761 97.14104132 41 87 C29.39152229 79.24347599 17.76064516 71.52485615 6 64 C5.26539551 63.52320801 4.53079102 63.04641602 3.77392578 62.55517578 C2.69667236 61.86464111 2.69667236 61.86464111 1.59765625 61.16015625 C0.95449463 60.74515869 0.31133301 60.33016113 -0.35131836 59.90258789 C-4.49414927 57.63455207 -7.89111992 61.27280923 -11.375 63.5 Z M-41 193 C-41 231.61 -41 270.22 -41 310 C-15.92 310 9.16 310 35 310 C35 271.39 35 232.78 35 193 C9.92 193 -15.16 193 -41 193 Z M-223.375 274.375 C-230.95753792 283.40257076 -234.39867116 293.61611206 -234.3125 305.3125 C-234.31121094 306.04654053 -234.30992187 306.78058105 -234.30859375 307.53686523 C-234.20111942 313.66894721 -233.09692297 319.22098015 -231 325 C-228.74498806 321.61748209 -228.095006 318.87764832 -227.125 314.9375 C-224.31818439 304.06581094 -220.84941422 291.56627615 -211 285 C-207.53146221 284.93329735 -205.04798634 285.10243053 -202.33984375 287.421875 C-201.19665464 288.64343877 -200.05620532 289.8675702 -198.91796875 291.09375 C-187.7115933 302.23165473 -170.75352202 303.51096912 -155.8125 304.5625 C-126.62432266 306.67678291 -126.62432266 306.67678291 -117.25 315.625 C-114.22753532 319.60030948 -112.65124187 324.33224365 -111 329 C-105.66203189 324.18390028 -104.39851712 316.93772432 -103.83984375 310.015625 C-103.30340688 296.86126011 -109.11125939 284.18889904 -117.5 274.3125 C-131.07447368 260.16560876 -149.43567593 253.21897935 -168.875 252.625 C-189.50441048 253.29678542 -208.84669112 259.03505376 -223.375 274.375 Z M-208 304 C-216.15891498 321.31753892 -220.21298297 343.67094409 -213.875 362.3125 C-208.15446094 376.75766008 -199.06292891 389.025329 -184.92578125 396.02734375 C-175.64810124 399.74870523 -164.77632768 399.23360113 -155.65234375 395.375 C-140.75851967 387.65390121 -132.48774832 375.51128861 -127 360 C-126.0598781 357.00395497 -125.42282515 354.10963809 -125 351 C-124.86722656 350.05511719 -124.73445313 349.11023438 -124.59765625 348.13671875 C-123.66911144 339.92587869 -123.77411192 332.82574514 -128 325.5625 C-135.27336627 319.34983297 -145.29294399 319.39839268 -154.46002197 318.72155762 C-172.47646745 317.35856935 -188.0177939 314.87657411 -204 306 C-205.32939394 305.32551207 -206.66088141 304.65496841 -208 304 Z M62 373 C58.31617984 377.91403839 55.38209703 383.11779439 52.6875 388.625 C51 392 51 392 49 393 C45.92917866 393.05506304 42.88162796 393.04872242 39.81201172 392.99902344 C37.83617752 392.97625534 35.86033683 392.95404466 33.88449097 392.93231201 C32.30750742 392.91313847 32.30750742 392.91313847 30.69866562 392.89357758 C23.97476751 392.82322696 17.25044987 392.81677772 10.52624321 392.79972458 C4.61363932 392.78107477 -1.29703647 392.73916339 -7.20898438 392.64697266 C-12.92434896 392.55910158 -18.63686733 392.53479636 -24.35284042 392.55335236 C-26.52902759 392.54905478 -28.70529771 392.52178172 -30.88089371 392.4708786 C-41.80584545 391.74021506 -41.80584545 391.74021506 -51.73976898 395.28114319 C-54.9122938 398.70569606 -56.77194691 402.48584356 -58 407 C-57.82802655 409.19826593 -57.82802655 409.19826593 -57 411 C-56.64808594 411.99515625 -56.29617187 412.9903125 -55.93359375 414.015625 C-54.27174415 417.60834423 -52.79537594 420.17893914 -50 423 C-44.58110303 424.7073237 -39.40108801 425.00858715 -34 423 C-30.09079882 419.83210709 -27.73175074 416.17366454 -25 412 C-20.64163582 407.11457782 -20.64163582 407.11457782 -16.5 406.375 C-12.07713612 407.16479712 -10.86558173 408.60654796 -8 412 C-7.071875 412.928125 -6.14375 413.85625 -5.1875 414.8125 C-4.465625 415.534375 -3.74375 416.25625 -3 417 C0.46675059 415.56808128 2.04220216 413.8651728 4.25 410.875 C6.89033433 407.83104768 7.81588297 407.05734793 11.8125 405.8125 C17.28601717 406.34598121 20.38932366 411.16373372 23.703125 415.10546875 C26 418 26 418 27.67578125 420.84375 C31.32621967 424.23037522 35.14712532 423.47412786 39.9375 423.3125 C40.83146484 423.27060547 41.72542969 423.22871094 42.64648438 423.18554688 C45.29278925 423.17572392 47.45885318 423.24907274 50 424 C52.35203047 426.36393949 53.63033363 428.9864502 55 432 C55.52464844 432.89847656 56.04929687 433.79695313 56.58984375 434.72265625 C57.03457031 435.49480469 57.47929687 436.26695312 57.9375 437.0625 C64.4499316 447.84510827 73.33375392 455.11645513 85 460 C85.66515625 460.2990625 86.3303125 460.598125 87.015625 460.90625 C98.28120973 465.16038689 113.40336301 464.65868717 124.47265625 460.1875 C125.30667969 459.795625 126.14070312 459.40375 127 459 C127.78246094 458.649375 128.56492187 458.29875 129.37109375 457.9375 C143.40052259 450.9349428 152.9753094 438.56375166 158 424 C160.91136839 415.17491456 161.12031214 405.02404848 159 396 C158.20335937 396.59748047 158.20335937 396.59748047 157.390625 397.20703125 C151 402 151 402 148.765625 403.37890625 C146.77896895 404.88175706 146.77896895 404.88175706 146.53125 407.3828125 C146.5209375 408.28773438 146.510625 409.19265625 146.5 410.125 C146.02705522 418.09149205 143.23576249 424.51497992 137.84375 430.4296875 C131.2083669 436.08100954 123.34150103 438.39945141 114.78515625 438.2734375 C106.10212673 437.42096616 98.62820564 433.66195769 93 427 C87.66144653 419.19852286 85.98906337 410.74700007 87.5625 401.4375 C89.87173648 392.96017134 94.2188899 386.79112658 101.65625 382.15625 C109.47907075 378.29699176 118.13259207 377.54404588 126.62890625 379.65234375 C132.30913041 381.95406937 136.63786036 385.76860569 141 390 C145.49092377 387.62245212 148.52235713 384.6393937 152 381 C148.31152743 370.48785317 138.7176819 363.34995513 129.046875 358.52734375 C104.85767271 347.8902971 79.9322948 353.61750406 62 373 Z M103.6875 399.8125 C101.76383122 403.44609658 101.07215961 405.88690225 101 410 C102.88452332 416.07235293 105.8100206 420.05056814 111.25 423.375 C115.40427225 424.31915278 118.91813249 424.29078923 123 423 C126.05732887 421.02083512 128.71773639 418.84816549 131 416 C131 415.01 131 414.02 131 413 C129.53626953 413.14308594 129.53626953 413.14308594 128.04296875 413.2890625 C126.77066406 413.39992188 125.49835938 413.51078125 124.1875 413.625 C122.29064453 413.79902344 122.29064453 413.79902344 120.35546875 413.9765625 C117 414 117 414 114 412 C113.38349515 406.45145631 113.38349515 406.45145631 114 404 C116.75954308 401.32292602 119.58816241 400.32432354 123.25 399.3125 C124.14203125 399.06113281 125.0340625 398.80976563 125.953125 398.55078125 C126.62859375 398.36902344 127.3040625 398.18726563 128 398 C125.12064752 394.92207149 123.2603018 393.26262554 118.94921875 392.76171875 C111.92246771 392.53113452 108.2533594 394.25942776 103.6875 399.8125 Z M-235.2578125 426.8046875 C-250.96354839 446.59532331 -244 473.35866696 -244 497 C-194.5 497 -145 497 -94 497 C-90.79371532 458.71628116 -90.79371532 458.71628116 -104.96875 424.77734375 C-114.67959724 415.36556245 -123.66315316 413.60337095 -136.75 413.6875 C-140.50203755 413.75142544 -144.25035208 413.85217909 -148 414 C-147.89905235 415.91370977 -147.7976342 417.82739566 -147.6940918 419.7409668 C-147.60584572 421.3816235 -147.52009965 423.02241645 -147.43676758 424.66333008 C-147.12685106 430.51278957 -146.57814823 436.29825024 -145.79296875 442.10546875 C-146.07879057 446.10158141 -147.81909098 448.75975789 -150 452 C-150.76558228 453.14045776 -150.76558228 453.14045776 -151.54663086 454.30395508 C-153.28677271 456.83436437 -155.07398619 459.32511256 -156.875 461.8125 C-157.77412109 463.09930664 -157.77412109 463.09930664 -158.69140625 464.41210938 C-163.18441389 470.60583249 -163.18441389 470.60583249 -167.2734375 472.58203125 C-170.27333577 473.04190104 -172.16213604 473.10361376 -175 472 C-175.70503309 470.68655013 -176.36630928 469.34931772 -177 468 C-177.87935316 466.67150133 -178.78605576 465.36082642 -179.71484375 464.06640625 C-180.23626953 463.33486328 -180.75769531 462.60332031 -181.29492188 461.84960938 C-181.83697266 461.09486328 -182.37902344 460.34011719 -182.9375 459.5625 C-184.52237337 457.3512695 -186.10231473 455.13813344 -187.65869141 452.90673828 C-188.70299758 451.42220403 -189.79062586 449.96811099 -190.89453125 448.52734375 C-192.58560912 444.66116926 -192.10108511 441.14116182 -191.75 437 C-191.69207275 436.16364014 -191.63414551 435.32728027 -191.57446289 434.46557617 C-191.3986008 431.97558848 -191.20096923 429.48806995 -191 427 C-190.89841013 425.62119106 -190.79803482 424.24229176 -190.69921875 422.86328125 C-190.48133959 419.90727893 -190.24558068 416.9537816 -190 414 C-193.79139846 413.88228283 -197.58231735 413.81224802 -201.375 413.75 C-202.43589844 413.71648437 -203.49679688 413.68296875 -204.58984375 413.6484375 C-216.9069256 413.49730766 -226.65075247 417.96810587 -235.2578125 426.8046875 Z M-175 414 C-177.90561025 422.71683074 -180.5157038 436.75414993 -176.34765625 445.25390625 C-174.39950214 448.09910145 -172.46186896 450.59096085 -170 453 C-163.82071527 447.46327092 -163.82071527 447.46327092 -160.80004883 440.06762695 C-160.88599512 434.31184982 -161.34352664 428.65502814 -162 422.9375 C-162.09539062 422.07189453 -162.19078125 421.20628906 -162.2890625 420.31445312 C-162.52169264 418.20915031 -162.76021969 416.10450044 -163 414 C-166.96 414 -170.92 414 -175 414 Z " fill="currentColor" transform="translate(295,0)"/>
</g>
</svg>