<svg version="1.0" xmlns="http://www.w3.org/2000/svg" width="400px" height="400px" viewBox="145 -18 380 400" preserveAspectRatio="xMidYMid meet" transform="rotate(0) scale(1, 1)">

<g transform="translate(0.000000,504.000000) scale(0.1333333,-0.1299999)" fill="currentColor" stroke="none">
<path d="M2540 3950 c0 -5 -12 -10 -26 -10 -17 0 -39 -14 -64 -40 -21 -22 -44&#10;-40 -50 -40 -6 0 -29 -18 -50 -40 -21 -22 -44 -40 -50 -40 -6 0 -29 -18 -50&#10;-40 -21 -22 -44 -40 -50 -40 -6 0 -29 -18 -50 -40 -21 -22 -44 -40 -50 -40 -6&#10;0 -29 -18 -50 -40 -21 -22 -44 -40 -50 -40 -6 0 -29 -18 -50 -40 -21 -22 -44&#10;-40 -50 -40 -6 0 -29 -18 -50 -40 -21 -22 -44 -40 -50 -40 -7 0 -25 -13 -40&#10;-30 -15 -16 -33 -30 -40 -30 -6 0 -29 -18 -50 -40 -21 -22 -43 -40 -49 -40 -7&#10;0 -32 -20 -56 -45 -43 -43 -45 -47 -45 -105 0 -51 4 -65 25 -85 21 -22 33 -25&#10;90 -25 l65 0 0 -206 c0 -223 3 -234 54 -234 l26 0 0 255 0 256 25 24 c13 14&#10;29 25 35 25 6 0 33 23 60 50 27 28 54 50 60 50 6 0 29 18 50 40 21 22 44 40&#10;50 40 7 0 25 14 40 30 15 17 33 30 40 30 6 0 29 18 50 40 21 22 44 40 50 40 6&#10;0 29 18 50 40 21 22 44 40 50 40 6 0 29 18 50 40 21 22 44 40 50 40 6 0 29 18&#10;50 40 29 30 46 40 70 40 24 0 41 -10 70 -40 21 -22 44 -40 50 -40 6 0 29 -18&#10;50 -40 21 -22 44 -40 50 -40 6 0 29 -18 50 -40 21 -22 44 -40 50 -40 6 0 29&#10;-18 50 -40 21 -22 44 -40 50 -40 7 0 25 -13 40 -30 15 -16 33 -30 40 -30 6 0&#10;29 -18 50 -40 21 -22 44 -40 50 -40 6 0 29 -18 50 -40 21 -22 43 -40 50 -40 6&#10;0 26 -16 45 -35 l35 -34 0 -256 0 -255 26 0 c51 0 54 11 54 234 l0 206 65 0&#10;c57 0 69 3 90 25 21 20 25 34 25 85 0 58 -2 62 -45 105 -24 25 -49 45 -56 45&#10;-6 0 -28 18 -49 40 -21 22 -44 40 -50 40 -6 0 -29 18 -50 40 -21 22 -44 40&#10;-50 40 -7 0 -25 14 -40 30 -15 17 -33 30 -40 30 -6 0 -29 18 -50 40 -21 22&#10;-44 40 -50 40 -6 0 -29 18 -50 40 -21 22 -44 40 -50 40 -6 0 -29 18 -50 40&#10;-21 22 -44 40 -50 40 -6 0 -29 18 -50 40 -21 22 -44 40 -50 40 -6 0 -29 18&#10;-50 40 -21 22 -44 40 -50 40 -6 0 -29 18 -50 40 -25 26 -47 40 -64 40 -14 0&#10;-26 5 -26 10 0 6 -9 10 -20 10 -11 0 -20 -4 -20 -10z m90 -110 c21 -22 44 -40&#10;50 -40 7 0 25 -13 40 -30 15 -16 33 -30 40 -30 6 0 29 -18 50 -40 21 -22 44&#10;-40 50 -40 6 0 29 -18 50 -40 21 -22 44 -40 50 -40 6 0 29 -18 50 -40 21 -22&#10;44 -40 50 -40 6 0 29 -18 50 -40 21 -22 44 -40 50 -40 6 0 29 -18 50 -40 21&#10;-22 44 -40 50 -40 6 0 29 -18 50 -40 21 -22 44 -40 50 -40 6 0 29 -18 50 -40&#10;21 -22 43 -40 50 -40 19 0 80 -69 80 -90 0 -47 -63 -68 -90 -30 -8 11 -21 20&#10;-28 20 -7 0 -31 18 -52 40 -21 22 -44 40 -50 40 -6 0 -29 18 -50 40 -21 22&#10;-44 40 -50 40 -6 0 -29 18 -50 40 -21 22 -44 40 -50 40 -6 0 -29 18 -50 40&#10;-21 22 -44 40 -50 40 -6 0 -29 18 -50 40 -21 22 -44 40 -50 40 -6 0 -29 18&#10;-50 40 -21 22 -44 40 -50 40 -6 0 -29 18 -50 40 -21 22 -44 40 -50 40 -6 0&#10;-29 18 -50 40 -21 22 -45 40 -52 40 -7 0 -20 9 -28 20 -8 11 -21 20 -30 20 -9&#10;0 -22 -9 -30 -20 -8 -11 -21 -20 -28 -20 -7 0 -31 -18 -52 -40 -21 -22 -44&#10;-40 -50 -40 -6 0 -29 -18 -50 -40 -21 -22 -44 -40 -50 -40 -6 0 -29 -18 -50&#10;-40 -21 -22 -44 -40 -50 -40 -6 0 -29 -18 -50 -40 -21 -22 -44 -40 -50 -40 -6&#10;0 -29 -18 -50 -40 -21 -22 -44 -40 -50 -40 -6 0 -29 -18 -50 -40 -21 -22 -44&#10;-40 -50 -40 -6 0 -29 -18 -50 -40 -21 -22 -44 -40 -50 -40 -7 0 -25 -13 -40&#10;-30 -15 -16 -33 -30 -40 -30 -7 0 -25 -13 -40 -30 -42 -45 -100 -34 -100 20 0&#10;21 61 90 80 90 7 0 29 18 50 40 21 22 44 40 50 40 6 0 29 18 50 40 21 22 44&#10;40 50 40 6 0 29 18 50 40 21 22 44 40 50 40 6 0 29 18 50 40 21 22 44 40 50&#10;40 6 0 29 18 50 40 21 22 44 40 50 40 6 0 29 18 50 40 21 22 44 40 50 40 7 0&#10;25 14 40 30 15 17 33 30 40 30 6 0 29 18 50 40 21 22 44 40 52 40 7 1 29 19&#10;48 40 49 55 87 55 140 0z"/>
<path d="M2520 3210 c0 -5 -22 -10 -50 -10 -27 0 -50 -4 -50 -10 0 -5 -13 -10&#10;-30 -10 -16 0 -30 -4 -30 -10 0 -5 -9 -10 -20 -10 -11 0 -20 -4 -20 -10 0 -5&#10;-7 -10 -15 -10 -19 0 -165 -144 -165 -163 0 -7 -9 -19 -20 -27 -12 -8 -20 -26&#10;-20 -42 0 -15 -4 -28 -10 -28 -5 0 -10 -18 -10 -40 0 -22 -4 -40 -10 -40 -6 0&#10;-10 -37 -10 -90 0 -53 4 -90 10 -90 6 0 10 -18 10 -40 0 -22 5 -40 10 -40 6 0&#10;10 -9 10 -20 0 -11 5 -20 10 -20 6 0 10 -9 10 -20 0 -11 5 -20 10 -20 6 0 10&#10;-7 10 -15 0 -20 125 -145 145 -145 8 0 15 -4 15 -10 0 -5 9 -10 20 -10 11 0&#10;20 -4 20 -10 0 -5 9 -10 20 -10 11 0 20 -4 20 -10 0 -5 14 -10 30 -10 17 0 30&#10;-4 30 -10 0 -6 47 -10 120 -10 73 0 120 4 120 10 0 6 14 10 30 10 17 0 30 5&#10;30 10 0 6 9 10 20 10 11 0 20 5 20 10 0 6 9 10 20 10 11 0 20 5 20 10 0 6 7&#10;10 15 10 20 0 145 125 145 145 0 8 5 15 10 15 6 0 10 9 10 20 0 11 5 20 10 20&#10;6 0 10 9 10 20 0 11 5 20 10 20 6 0 10 18 10 40 0 22 5 40 10 40 6 0 10 40 10&#10;100 0 60 -4 100 -10 100 -5 0 -10 14 -10 30 0 17 -4 30 -10 30 -5 0 -10 9 -10&#10;20 0 11 -4 20 -10 20 -5 0 -10 9 -10 20 0 11 -4 20 -10 20 -5 0 -10 7 -10 15&#10;0 8 -34 49 -75 90 -41 41 -82 75 -90 75 -8 0 -15 5 -15 10 0 6 -9 10 -20 10&#10;-11 0 -20 5 -20 10 0 6 -9 10 -20 10 -11 0 -20 5 -20 10 0 6 -22 10 -50 10&#10;-27 0 -50 5 -50 10 0 6 -22 10 -50 10 -27 0 -50 -4 -50 -10z m140 -80 c0 -5&#10;14 -10 30 -10 17 0 30 -4 30 -10 0 -5 9 -10 20 -10 11 0 20 -4 20 -10 0 -5 7&#10;-10 15 -10 19 0 145 -124 145 -143 0 -7 9 -19 20 -27 12 -8 20 -26 20 -42 0&#10;-15 5 -28 10 -28 6 0 10 -50 10 -130 0 -80 -4 -130 -10 -130 -5 0 -10 -9 -10&#10;-20 0 -11 -4 -20 -10 -20 -5 0 -10 -9 -10 -20 0 -11 -4 -20 -10 -20 -5 0 -10&#10;-7 -10 -15 0 -19 -104 -125 -123 -125 -7 0 -19 -9 -27 -20 -8 -12 -26 -20 -42&#10;-20 -15 0 -28 -4 -28 -10 0 -5 -18 -10 -40 -10 -22 0 -40 -4 -40 -10 0 -6 -30&#10;-10 -70 -10 -40 0 -70 4 -70 10 0 6 -13 10 -30 10 -16 0 -30 5 -30 10 0 6 -13&#10;10 -28 10 -16 0 -34 8 -42 20 -8 11 -20 20 -27 20 -19 0 -123 106 -123 125 0&#10;8 -4 15 -10 15 -5 0 -10 9 -10 20 0 11 -4 20 -10 20 -5 0 -10 9 -10 20 0 11&#10;-4 20 -10 20 -6 0 -10 50 -10 130 0 80 4 130 10 130 6 0 10 13 10 28 0 16 8&#10;34 20 42 11 8 20 20 20 27 0 19 126 143 145 143 8 0 15 5 15 10 0 6 9 10 20&#10;10 11 0 20 5 20 10 0 6 14 10 30 10 17 0 30 5 30 10 0 6 40 10 100 10 60 0&#10;100 -4 100 -10z"/>
<path d="M2670 2740 c-74 -76 -141 -139 -148 -139 -7 -1 -53 40 -102 89 -49&#10;50 -94 90 -100 90 -15 0 -40 -25 -40 -39 0 -14 226 -241 240 -241 14 0 340&#10;327 340 341 0 15 -26 39 -42 38 -7 0 -74 -63 -148 -139z"/>
<path d="M1440 2490 c0 -5 -9 -10 -20 -10 -11 0 -20 -4 -20 -10 0 -5 -8 -10&#10;-18 -10 -10 0 -24 -9 -32 -20 -8 -11 -20 -20 -28 -20 -17 0 -42 -25 -42 -42 0&#10;-8 -9 -20 -20 -28 -11 -8 -20 -22 -20 -32 0 -10 -4 -18 -10 -18 -5 0 -10 -9&#10;-10 -20 0 -11 -4 -20 -10 -20 -6 0 -10 -47 -10 -120 0 -73 4 -120 10 -120 6 0&#10;10 -9 10 -20 0 -11 5 -20 10 -20 6 0 10 -7 10 -15 0 -9 25 -40 55 -70 30 -30&#10;61 -55 70 -55 8 0 15 -4 15 -10 0 -5 9 -10 20 -10 11 0 20 -4 20 -10 0 -5 14&#10;-10 30 -10 17 0 30 -4 30 -10 0 -6 33 -10 80 -10 47 0 80 4 80 10 0 6 14 10&#10;30 10 17 0 30 5 30 10 0 6 8 10 18 10 10 0 24 9 32 20 8 11 22 20 32 20 10 0&#10;18 5 18 10 0 20 33 9 60 -20 15 -16 33 -30 40 -30 7 0 25 -13 40 -30 15 -16&#10;33 -30 40 -30 6 0 29 -18 50 -40 21 -22 44 -40 50 -40 17 0 40 -26 40 -44 0&#10;-9 -4 -16 -10 -16 -5 0 -10 -18 -10 -40 0 -22 -4 -40 -10 -40 -6 0 -10 -27&#10;-10 -60 0 -33 4 -60 10 -60 6 0 10 -22 10 -50 0 -27 5 -50 10 -50 6 0 10 -9&#10;10 -20 0 -11 5 -20 10 -20 6 0 10 -9 10 -20 0 -11 5 -20 10 -20 6 0 10 -7 10&#10;-15 0 -20 125 -145 145 -145 8 0 15 -4 15 -10 0 -5 9 -10 20 -10 11 0 20 -4&#10;20 -10 0 -5 9 -10 20 -10 11 0 20 -4 20 -10 0 -5 18 -10 40 -10 22 0 40 -4 40&#10;-10 0 -6 33 -10 80 -10 47 0 80 4 80 10 0 6 18 10 40 10 22 0 40 5 40 10 0 6&#10;9 10 20 10 11 0 20 5 20 10 0 6 9 10 20 10 11 0 20 5 20 10 0 6 7 10 15 10 20&#10;0 145 125 145 145 0 8 5 15 10 15 6 0 10 9 10 20 0 11 5 20 10 20 6 0 10 9 10&#10;20 0 11 5 20 10 20 6 0 10 23 10 50 0 28 5 50 10 50 6 0 10 27 10 60 0 33 -4&#10;60 -10 60 -5 0 -10 18 -10 40 0 22 -4 40 -10 40 -5 0 -10 7 -10 16 0 18 23 44&#10;40 44 6 0 29 18 50 40 21 22 44 40 50 40 7 0 25 14 40 30 15 17 33 30 40 30 7&#10;0 25 14 40 30 27 29 60 40 60 20 0 -5 8 -10 18 -10 10 0 24 -9 32 -20 8 -11&#10;22 -20 32 -20 10 0 18 -4 18 -10 0 -5 18 -10 40 -10 22 0 40 -4 40 -10 0 -6&#10;30 -10 70 -10 40 0 70 4 70 10 0 6 14 10 30 10 17 0 30 5 30 10 0 6 9 10 20&#10;10 11 0 20 5 20 10 0 6 7 10 15 10 20 0 125 105 125 125 0 8 5 15 10 15 6 0&#10;10 9 10 20 0 11 5 20 10 20 6 0 10 47 10 120 0 73 -4 120 -10 120 -5 0 -10 9&#10;-10 20 0 11 -4 20 -10 20 -5 0 -10 8 -10 18 0 10 -9 24 -20 32 -11 8 -20 20&#10;-20 28 0 17 -25 42 -42 42 -8 0 -20 9 -28 20 -8 11 -22 20 -32 20 -10 0 -18 5&#10;-18 10 0 6 -9 10 -20 10 -11 0 -20 5 -20 10 0 6 -43 10 -110 10 -67 0 -110 -4&#10;-110 -10 0 -5 -9 -10 -20 -10 -11 0 -20 -4 -20 -10 0 -5 -9 -10 -20 -10 -11 0&#10;-20 -4 -20 -10 0 -5 -7 -10 -15 -10 -20 0 -105 -85 -105 -105 0 -8 -4 -15 -10&#10;-15 -5 0 -10 -9 -10 -20 0 -11 -4 -20 -10 -20 -5 0 -10 -18 -10 -40 0 -22 -4&#10;-40 -10 -40 -6 0 -10 -27 -10 -60 0 -33 4 -60 10 -60 6 0 10 -13 10 -30 0 -16&#10;5 -30 10 -30 6 0 10 -13 10 -29 0 -16 5 -31 12 -33 14 -5 -55 -78 -72 -78 -7&#10;0 -29 -18 -50 -40 -21 -22 -44 -40 -50 -40 -6 0 -29 -18 -50 -40 -21 -22 -44&#10;-40 -50 -40 -15 0 -40 25 -40 40 0 15 -87 100 -103 100 -7 0 -19 9 -27 20 -8&#10;11 -22 20 -32 20 -10 0 -18 5 -18 10 0 6 -13 10 -30 10 -16 0 -30 5 -30 10 0&#10;6 -27 10 -60 10 -33 0 -60 4 -60 10 0 6 -9 10 -20 10 -11 0 -20 -4 -20 -10 0&#10;-6 -27 -10 -60 -10 -33 0 -60 -4 -60 -10 0 -5 -13 -10 -30 -10 -16 0 -30 -4&#10;-30 -10 0 -5 -8 -10 -18 -10 -10 0 -24 -9 -32 -20 -8 -11 -20 -20 -27 -20 -16&#10;0 -103 -85 -103 -100 0 -15 -25 -40 -40 -40 -6 0 -29 18 -50 40 -21 22 -44 40&#10;-50 40 -6 0 -29 18 -50 40 -21 22 -43 40 -50 40 -16 0 -80 67 -80 85 0 8 5 15&#10;10 15 6 0 10 9 10 20 0 11 5 20 10 20 6 0 10 14 10 30 0 17 5 30 10 30 6 0 10&#10;27 10 60 0 33 -4 60 -10 60 -5 0 -10 18 -10 40 0 22 -4 40 -10 40 -5 0 -10 9&#10;-10 20 0 11 -4 20 -10 20 -5 0 -10 7 -10 15 0 9 -20 36 -45 60 -24 25 -51 45&#10;-60 45 -8 0 -15 5 -15 10 0 6 -9 10 -20 10 -11 0 -20 5 -20 10 0 6 -9 10 -20&#10;10 -11 0 -20 5 -20 10 0 6 -43 10 -110 10 -67 0 -110 -4 -110 -10z m160 -60&#10;c0 -5 14 -10 30 -10 17 0 30 -4 30 -10 0 -5 9 -10 20 -10 11 0 20 -4 20 -10 0&#10;-5 7 -10 15 -10 9 0 31 -16 50 -35 19 -19 35 -41 35 -50 0 -8 5 -15 10 -15 6&#10;0 10 -9 10 -20 0 -11 5 -20 10 -20 6 0 10 -37 10 -90 0 -53 -4 -90 -10 -90 -5&#10;0 -10 -11 -10 -25 0 -22 -39 -75 -55 -75 -3 0 -5 29 -5 65 0 57 -3 69 -25 90&#10;-13 14 -31 25 -40 25 -12 0 -15 13 -15 60 0 33 -4 60 -10 60 -5 0 -10 7 -10&#10;16 0 8 -6 22 -14 30 -8 8 -22 14 -30 14 -9 0 -16 5 -16 10 0 6 -18 10 -40 10&#10;-22 0 -40 -4 -40 -10 0 -5 -7 -10 -15 -10 -20 0 -65 -45 -65 -65 0 -8 -4 -15&#10;-10 -15 -5 0 -10 -22 -10 -50 0 -39 -4 -50 -16 -50 -20 0 -44 -24 -44 -44 0&#10;-9 -4 -16 -10 -16 -6 0 -10 -27 -10 -60 0 -33 -3 -60 -6 -60 -11 0 -34 29 -34&#10;44 0 9 -4 16 -10 16 -5 0 -10 14 -10 30 0 17 -4 30 -10 30 -6 0 -10 30 -10 70&#10;0 40 4 70 10 70 6 0 10 9 10 20 0 11 5 20 10 20 6 0 10 8 10 18 0 10 9 24 20&#10;32 11 8 20 22 20 32 0 11 7 18 18 18 10 0 24 9 32 20 8 11 22 20 32 20 10 0&#10;18 5 18 10 0 6 14 10 30 10 17 0 30 5 30 10 0 6 23 10 50 10 28 0 50 -4 50&#10;-10z m2020 0 c0 -5 14 -10 30 -10 17 0 30 -4 30 -10 0 -5 8 -10 18 -10 10 0&#10;24 -9 32 -20 8 -11 22 -20 32 -20 11 0 18 -7 18 -18 0 -10 9 -24 20 -32 11 -8&#10;20 -22 20 -32 0 -10 5 -18 10 -18 6 0 10 -9 10 -20 0 -11 5 -20 10 -20 6 0 10&#10;-30 10 -70 0 -40 -4 -70 -10 -70 -5 0 -10 -13 -10 -30 0 -16 -4 -30 -10 -30&#10;-5 0 -10 -7 -10 -16 0 -15 -23 -44 -34 -44 -3 0 -6 27 -6 60 0 33 -4 60 -10&#10;60 -5 0 -10 7 -10 16 0 20 -24 44 -44 44 -12 0 -16 11 -16 50 0 28 -4 50 -10&#10;50 -5 0 -10 7 -10 15 0 20 -45 65 -65 65 -8 0 -15 5 -15 10 0 6 -17 10 -38 10&#10;-26 0 -42 -6 -52 -20 -8 -11 -22 -20 -32 -20 -11 0 -18 -7 -18 -20 0 -11 -4&#10;-20 -10 -20 -6 0 -10 -27 -10 -60 0 -47 -3 -60 -15 -60 -9 0 -27 -11 -40 -25&#10;-22 -21 -25 -33 -25 -90 0 -36 -2 -65 -5 -65 -16 0 -55 53 -55 75 0 14 -4 25&#10;-10 25 -6 0 -10 37 -10 90 0 53 4 90 10 90 6 0 10 9 10 20 0 11 5 20 10 20 6&#10;0 10 7 10 15 0 19 64 85 82 85 8 0 20 9 28 20 10 14 26 20 52 20 21 0 38 5 38&#10;10 0 6 23 10 50 10 28 0 50 -4 50 -10z m-2020 -189 c0 -11 6 -22 13 -25 10 -5&#10;10 -7 0 -12 -7 -3 -13 -12 -13 -21 0 -37 -57 -57 -86 -29 -17 18 -18 72 -1 91&#10;6 8 29 14 50 15 30 0 37 -4 37 -19z m2006 5 c8 -8 14 -29 14 -46 0 -37 -20&#10;-60 -50 -60 -34 0 -50 24 -50 74 l0 46 36 0 c19 0 42 -6 50 -14z m-2086 -176&#10;c0 -5 14 -10 30 -10 17 0 30 5 30 10 0 16 89 12 106 -4 10 -10 14 -39 14 -100&#10;0 -79 -2 -86 -20 -86 -11 0 -20 -4 -20 -10 0 -6 -40 -10 -100 -10 -60 0 -100&#10;4 -100 10 0 6 -9 10 -20 10 -19 0 -20 7 -20 100 l0 100 50 0 c28 0 50 -4 50&#10;-10z m2020 0 c0 -5 14 -10 30 -10 17 0 30 5 30 10 0 6 23 10 50 10 l50 0 0&#10;-100 c0 -93 -1 -100 -20 -100 -11 0 -20 -4 -20 -10 0 -6 -40 -10 -100 -10 -60&#10;0 -100 4 -100 10 0 6 -9 10 -20 10 -18 0 -20 7 -20 85 0 55 5 91 13 100 14 16&#10;107 21 107 5z m-880 -200 c0 -5 14 -10 30 -10 17 0 30 -4 30 -10 0 -5 8 -10&#10;18 -10 10 0 24 -9 32 -20 8 -11 20 -20 28 -20 7 0 28 -16 47 -35 19 -19 35&#10;-40 35 -47 0 -8 9 -20 20 -28 11 -8 20 -22 20 -32 0 -10 5 -18 10 -18 6 0 10&#10;-13 10 -30 0 -16 5 -30 10 -30 6 0 10 -40 10 -100 0 -60 -4 -100 -10 -100 -5&#10;0 -10 -13 -10 -30 0 -16 -4 -30 -10 -30 -5 0 -10 -9 -10 -20 0 -11 -4 -20 -10&#10;-20 -5 0 -10 -7 -10 -15 0 -15 -42 -65 -55 -65 -3 0 -5 41 -5 90 0 53 -4 90&#10;-10 90 -5 0 -10 7 -10 15 0 20 -45 65 -65 65 -8 0 -15 5 -15 10 0 6 -9 10 -20&#10;10 -11 0 -20 5 -20 10 0 6 5 10 10 10 6 0 10 27 10 60 0 33 -4 60 -10 60 -5 0&#10;-10 7 -10 15 0 20 -45 65 -65 65 -8 0 -15 5 -15 10 0 6 -27 10 -60 10 -33 0&#10;-60 -4 -60 -10 0 -5 -7 -10 -15 -10 -20 0 -65 -45 -65 -65 0 -8 -4 -15 -10&#10;-15 -6 0 -10 -27 -10 -60 0 -33 4 -60 10 -60 6 0 10 -4 10 -10 0 -5 -9 -10&#10;-20 -10 -11 0 -20 -4 -20 -10 0 -5 -7 -10 -15 -10 -20 0 -65 -45 -65 -65 0 -8&#10;-4 -15 -10 -15 -6 0 -10 -37 -10 -90 0 -49 -2 -90 -5 -90 -13 0 -55 50 -55 65&#10;0 8 -4 15 -10 15 -5 0 -10 9 -10 20 0 11 -4 20 -10 20 -5 0 -10 14 -10 30 0&#10;17 -4 30 -10 30 -6 0 -10 40 -10 100 0 60 4 100 10 100 6 0 10 14 10 30 0 17&#10;5 30 10 30 6 0 10 8 10 18 0 10 9 24 20 32 11 8 20 20 20 28 0 7 16 28 35 47&#10;19 19 40 35 47 35 8 0 20 9 28 20 8 11 22 20 32 20 10 0 18 5 18 10 0 6 14 10&#10;30 10 17 0 30 5 30 10 0 6 40 10 100 10 60 0 100 -4 100 -10z m-80 -220 c0 -5&#10;7 -10 16 -10 29 0 44 -27 44 -80 0 -62 -30 -100 -80 -100 -50 0 -80 38 -80&#10;100 0 53 15 80 44 80 9 0 16 5 16 10 0 6 9 10 20 10 11 0 20 -4 20 -10z m-100&#10;-240 c0 -5 9 -10 20 -10 11 0 20 -4 20 -10 0 -5 18 -10 40 -10 22 0 40 5 40&#10;10 0 6 9 10 20 10 11 0 20 5 20 10 0 6 14 10 30 10 17 0 30 -4 30 -10 0 -5 7&#10;-10 16 -10 37 0 44 -24 44 -154 0 -119 -1 -126 -20 -126 -11 0 -20 -4 -20 -10&#10;0 -5 -9 -10 -20 -10 -11 0 -20 -4 -20 -10 0 -6 -47 -10 -120 -10 -73 0 -120 4&#10;-120 10 0 6 -9 10 -20 10 -11 0 -20 5 -20 10 0 6 -9 10 -20 10 -19 0 -20 7&#10;-20 126 0 130 7 154 44 154 9 0 16 5 16 10 0 6 14 10 30 10 17 0 30 -4 30 -10z"/>
</g>
</svg>